# xmcd
#
# Track frame offsets:
# 150
# 15345
# 25532
# 42806
# 55698
# 72455
# 95962
# 109838
# 125303
# 136055
# 146362
# 162423
#
# Disc length: 2344 seconds
#
#
# Revision: 2
# Processed by: cddbd v1.5.2PL0 Copyright (c) Steve Scherf et al.
# Submitted via: MfcCDDB 1.28 
#
DISCID=9909260c
DTITLE=V-03-Alto Astral - Recanto Serra
DYEAR=2000
DGENRE=Country
TTITLE0=alto astral
TTITLE1=sucesso alcancado
TTITLE2=fora lagoa
TTITLE3=bailao chupa menta
TTITLE4=nova petrop maravilhosa
TTITLE5=baile continua
TTITLE6=morena 18 quilates
TTITLE7=nao me abandone
TTITLE8=polkinha analis
TTITLE9=der wein
TTITLE10=dobrado tricolor
TTITLE11=adeus capri
EXTD=
EXTT0=
EXTT1=
EXTT2=
EXTT3=
EXTT4=
EXTT5=
EXTT6=
EXTT7=
EXTT8=
EXTT9=
EXTT10=
EXTT11=
PLAYORDER=
